# Blender 3.3.1
# www.blender.org
mtllib RACETRACK2.mtl
o Plane
v -1.000000 0.000000 3.539813
v 1.000000 0.000000 3.539813
v -1.000000 0.000000 -1.000000
v 1.000000 0.000000 -1.000000
v -3.603180 0.000000 -20.000000
v -0.532206 0.000000 -16.904934
v -1.000000 0.000000 -22.000000
v 1.000000 0.000000 -22.000000
v 17.000000 0.000000 -18.555046
v 17.000000 0.000000 -22.000000
v 20.197371 0.000000 -20.000000
v 18.993490 0.000000 -21.516127
v 14.568313 0.000000 4.000000
v 17.603416 0.000000 4.000000
v 15.603417 0.000000 7.756003
v 17.376232 0.000000 5.772816
v 2.005959 0.000000 6.327794
v 1.000000 0.000000 8.327794
v -1.000000 0.000000 4.000000
v -1.000000 0.000000 6.000000
v -4.659441 0.000000 -10.500000
v -1.574095 0.000000 -10.500000
v 9.000000 0.000000 -17.281485
v 9.000000 0.000000 -14.492935
v 21.072798 0.000000 -8.000000
v 19.072798 0.000000 -9.336758
v 10.478341 0.000000 6.765745
v 10.478341 0.000000 9.242702
v 11.574975 0.000000 -2.000000
v 14.009559 0.000000 -2.000000
v 23.730307 0.000000 -15.913627
v 20.908594 0.000000 -15.913627
v 13.054054 0.000000 -15.688617
v 13.054054 0.000000 -18.688618
v 5.000000 0.000000 -19.782255
v 5.000000 0.000000 -16.781374
v -2.360644 0.000000 -15.250000
v -5.615077 0.000000 -15.250000
v -1.781893 0.000000 -5.750000
v 1.000000 0.000000 -5.750000
v 5.000000 0.000000 6.820437
v 5.000000 0.000000 9.721405
v 13.000000 0.000000 9.022358
v 13.000000 0.000000 6.325858
v 21.472137 0.000000 -11.956814
v 24.420343 0.000000 -11.956814
v 21.190231 0.000000 -11.272848
v 23.190231 0.000000 -9.978407
v 16.677904 0.000000 -5.000000
v 12.702366 0.000000 -5.000000
v 13.191747 0.000000 1.000000
v 15.191747 0.000000 1.000000
v -1.000000 0.000000 0.000000
v 1.000000 0.000000 0.000000
v 7.529009 0.000000 5.985249
v 7.529009 0.000000 8.205430
v -1.000000 0.499000 3.539813
v -1.000000 0.499000 -1.000000
v -3.603180 0.499000 -20.000000
v -1.000000 0.499000 -22.000000
v 1.000000 0.499000 -22.000000
v 17.000000 0.499000 -22.000000
v 20.197371 0.499000 -20.000000
v 18.993490 0.499000 -21.516127
v 17.603416 0.499000 4.000000
v 15.603417 0.499000 7.756003
v 17.376232 0.499000 5.772816
v 1.000000 0.499000 8.327794
v -1.000000 0.499000 4.000000
v -1.000000 0.499000 6.000000
v -4.659441 0.499000 -10.500000
v 9.000000 0.499000 -17.281485
v 21.072798 0.499000 -8.000000
v 10.478341 0.499000 9.242702
v 14.009559 0.499000 -2.000000
v 23.730307 0.499000 -15.913627
v 13.054054 0.499000 -18.688618
v 5.000000 0.499000 -19.782255
v -5.615077 0.499000 -15.250000
v -1.781893 0.499000 -5.750000
v 5.000000 0.499000 9.721405
v 13.000000 0.499000 9.022358
v 24.420343 0.499000 -11.956814
v 23.190231 0.499000 -9.978407
v 16.677904 0.499000 -5.000000
v 15.191747 0.499000 1.000000
v -1.000000 0.499000 0.000000
v 7.529009 0.499000 8.205430
v 1.000000 0.499997 3.539813
v 1.000000 0.499997 -1.000000
v -0.532206 0.499997 -16.904934
v 17.000000 0.499997 -18.555046
v 14.568313 0.499997 4.000000
v 2.005959 0.499997 6.327794
v -1.574095 0.499997 -10.500000
v 9.000000 0.499997 -14.492935
v 19.072798 0.499997 -9.336758
v 10.478341 0.499997 6.765745
v 11.574975 0.499997 -2.000000
v 20.908594 0.499997 -15.913627
v 13.054054 0.499997 -15.688617
v 5.000000 0.499997 -16.781374
v -2.360644 0.499997 -15.250000
v 1.000000 0.499997 -5.750000
v 5.000000 0.499997 6.820437
v 13.000000 0.499997 6.325858
v 21.472137 0.499997 -11.956814
v 21.190231 0.499997 -11.272848
v 12.702366 0.499997 -5.000000
v 13.191747 0.499997 1.000000
v 1.000000 0.499997 0.000000
v 7.529009 0.499997 5.985249
vn -0.0000 1.0000 -0.0000
vn 0.6428 -0.0000 0.7660
vn -0.7794 -0.0000 0.6265
vn -0.5638 -0.0000 -0.8259
vn 0.3318 -0.0000 -0.9434
vn -0.4374 -0.0000 -0.8993
vn -0.5301 -0.0000 0.8479
vn 1.0000 -0.0000 -0.0000
vn -0.4849 -0.0000 0.8746
vn 0.7585 -0.0000 -0.6517
vn -0.7831 -0.0000 0.6218
vn -0.0870 -0.0000 -0.9962
vn -0.8492 -0.0000 -0.5280
vn -0.2359 -0.0000 0.9718
vn 0.9208 -0.0000 0.3900
vn -0.5141 -0.0000 -0.8577
vn -0.9304 -0.0000 0.3666
vn -0.6827 -0.0000 -0.7307
vn 0.9804 -0.0000 -0.1972
vn 0.8553 -0.0000 -0.5181
vn -0.7565 -0.0000 0.6540
vn -0.9851 -0.0000 0.1718
vn -0.7472 -0.0000 -0.6646
vn 0.9867 -0.0000 -0.1624
vn -0.7455 -0.0000 -0.6665
vn 0.3279 -0.0000 0.9447
vn -0.9919 -0.0000 -0.1271
vn -0.0000 -0.0000 1.0000
vn 0.3290 -0.0000 -0.9443
vn 0.6092 -0.0000 0.7930
vn 0.6748 -0.0000 0.7380
vn 0.0223 -0.0000 -0.9998
vn 0.1718 -0.0000 0.9851
vn 0.8803 -0.0000 -0.4744
vn -0.8792 -0.0000 0.4765
vn 0.5599 -0.0000 -0.8285
vn -0.1624 -0.0000 0.9867
vn -1.0000 -0.0000 -0.0000
vn -0.2558 -0.0000 0.9667
vn -0.9866 -0.0000 0.1634
vn 0.9245 -0.0000 0.3811
vn 0.9089 -0.0000 -0.4170
vn -0.2829 -0.0000 -0.9592
vn 0.4966 -0.0000 -0.8680
vn -0.5877 -0.0000 -0.8091
vn 0.8291 -0.0000 0.5591
vn 0.9361 -0.0000 0.3518
vn -0.6711 -0.0000 -0.7414
vn 0.5627 -0.0000 0.8266
vn 0.9900 -0.0000 -0.1410
vn -0.9406 -0.0000 0.3394
vn 0.3136 -0.0000 0.9496
vt 0.000000 0.000000
vt 1.000000 0.000000
vt 0.000000 1.000000
vt 1.000000 1.000000
vt 0.000000 1.000000
vt 1.000000 1.000000
vt 0.000000 1.000000
vt 1.000000 1.000000
vt 1.000000 1.000000
vt 1.000000 1.000000
vt 1.000000 1.000000
vt 1.000000 1.000000
vt 1.000000 1.000000
vt 1.000000 1.000000
vt 1.000000 1.000000
vt 1.000000 1.000000
vt 1.000000 1.000000
vt 1.000000 1.000000
vt 1.000000 1.000000
vt 1.000000 1.000000
vt 0.000000 1.000000
vt 1.000000 1.000000
vt 1.000000 1.000000
vt 1.000000 1.000000
vt 1.000000 1.000000
vt 1.000000 1.000000
vt 1.000000 1.000000
vt 1.000000 1.000000
vt 1.000000 1.000000
vt 1.000000 1.000000
vt 1.000000 1.000000
vt 1.000000 1.000000
vt 1.000000 1.000000
vt 1.000000 1.000000
vt 1.000000 1.000000
vt 1.000000 1.000000
vt 1.000000 1.000000
vt 0.000000 1.000000
vt 0.000000 1.000000
vt 1.000000 1.000000
vt 1.000000 1.000000
vt 1.000000 1.000000
vt 1.000000 1.000000
vt 1.000000 1.000000
vt 1.000000 1.000000
vt 1.000000 1.000000
vt 1.000000 1.000000
vt 1.000000 1.000000
vt 1.000000 1.000000
vt 1.000000 1.000000
vt 1.000000 1.000000
vt 1.000000 1.000000
vt 0.000000 0.500000
vt 1.000000 0.500000
vt 1.000000 1.000000
vt 1.000000 1.000000
vt 0.000000 0.000000
vt 0.000000 1.000000
vt 0.000000 1.000000
vt 0.000000 1.000000
vt 1.000000 1.000000
vt 1.000000 1.000000
vt 1.000000 1.000000
vt 1.000000 1.000000
vt 1.000000 1.000000
vt 1.000000 1.000000
vt 1.000000 1.000000
vt 1.000000 1.000000
vt 1.000000 1.000000
vt 1.000000 1.000000
vt 0.000000 1.000000
vt 1.000000 1.000000
vt 1.000000 1.000000
vt 1.000000 1.000000
vt 1.000000 1.000000
vt 1.000000 1.000000
vt 1.000000 1.000000
vt 1.000000 1.000000
vt 0.000000 1.000000
vt 0.000000 1.000000
vt 1.000000 1.000000
vt 1.000000 1.000000
vt 1.000000 1.000000
vt 1.000000 1.000000
vt 1.000000 1.000000
vt 1.000000 1.000000
vt 0.000000 0.500000
vt 1.000000 1.000000
vt 1.000000 0.000000
vt 1.000000 1.000000
vt 1.000000 1.000000
vt 1.000000 1.000000
vt 1.000000 1.000000
vt 1.000000 1.000000
vt 1.000000 1.000000
vt 1.000000 1.000000
vt 1.000000 1.000000
vt 1.000000 1.000000
vt 1.000000 1.000000
vt 1.000000 1.000000
vt 1.000000 1.000000
vt 1.000000 1.000000
vt 1.000000 1.000000
vt 1.000000 1.000000
vt 1.000000 1.000000
vt 1.000000 1.000000
vt 1.000000 1.000000
vt 1.000000 1.000000
vt 1.000000 1.000000
vt 1.000000 1.000000
vt 1.000000 0.500000
vt 1.000000 1.000000
s 0
f 53/53/1 54/54/1 4/4/1 3/3/1
f 38/38/1 37/37/1 6/6/1 5/5/1
f 5/5/1 6/6/1 8/8/1 7/7/1
f 34/34/1 33/33/1 9/9/1 10/10/1
f 10/10/1 9/9/1 11/11/1 12/12/1
f 52/52/1 51/51/1 13/13/1 14/14/1
f 14/14/1 13/13/1 15/15/1 16/16/1
f 42/42/1 41/41/1 17/17/1 18/18/1
f 18/18/1 17/17/1 19/19/1 20/20/1
f 1/1/1 19/19/1 17/17/1 2/2/1
f 39/39/1 40/40/1 22/22/1 21/21/1
f 35/35/1 36/36/1 24/24/1 23/23/1
f 48/48/1 47/47/1 26/26/1 25/25/1
f 56/56/1 55/55/1 41/41/1 42/42/1
f 49/49/1 50/50/1 29/29/1 30/30/1
f 11/11/1 9/9/1 32/32/1 31/31/1
f 23/23/1 24/24/1 33/33/1 34/34/1
f 8/8/1 6/6/1 36/36/1 35/35/1
f 21/21/1 22/22/1 37/37/1 38/38/1
f 3/3/1 4/4/1 40/40/1 39/39/1
f 43/43/1 44/44/1 27/27/1 28/28/1
f 15/15/1 13/13/1 44/44/1 43/43/1
f 31/31/1 32/32/1 45/45/1 46/46/1
f 46/46/1 45/45/1 47/47/1 48/48/1
f 25/25/1 26/26/1 50/50/1 49/49/1
f 30/30/1 29/29/1 51/51/1 52/52/1
f 1/1/1 2/2/1 54/54/1 53/53/1
f 28/28/1 27/27/1 55/55/1 56/56/1
f 34/34/2 10/10/2 62/62/2 77/77/2
f 52/52/3 14/14/3 65/65/3 86/86/3
f 25/25/4 49/49/4 85/85/4 73/73/4
f 28/28/5 56/56/5 88/88/5 74/74/5
f 15/15/6 43/43/6 82/82/6 66/66/6
f 35/35/7 23/23/7 72/72/7 78/78/7
f 53/53/8 3/3/8 58/58/8 87/87/8
f 8/8/9 35/35/9 78/78/9 61/61/9
f 20/20/8 19/19/8 69/69/8 70/70/8
f 18/18/10 20/20/10 70/70/10 68/68/10
f 12/12/11 11/11/11 63/63/11 64/64/11
f 43/43/12 28/28/12 74/74/12 82/82/12
f 46/46/13 48/48/13 84/84/13 83/83/13
f 1/1/8 53/53/8 87/87/8 57/57/8
f 10/10/14 12/12/14 64/64/14 62/62/14
f 19/19/8 1/1/8 57/57/8 69/69/8
f 38/38/15 5/5/15 59/59/15 79/79/15
f 56/56/16 42/42/16 81/81/16 88/88/16
f 30/30/17 52/52/17 86/86/17 75/75/17
f 48/48/18 25/25/18 73/73/18 84/84/18
f 21/21/19 38/38/19 79/79/19 71/71/19
f 39/39/20 21/21/20 71/71/20 80/80/20
f 11/11/21 31/31/21 76/76/21 63/63/21
f 31/31/22 46/46/22 83/83/22 76/76/22
f 49/49/23 30/30/23 75/75/23 85/85/23
f 3/3/24 39/39/24 80/80/24 58/58/24
f 16/16/25 15/15/25 66/66/25 67/67/25
f 23/23/26 34/34/26 77/77/26 72/72/26
f 14/14/27 16/16/27 67/67/27 65/65/27
f 7/7/28 8/8/28 61/61/28 60/60/28
f 42/42/29 18/18/29 68/68/29 81/81/29
f 5/5/30 7/7/30 60/60/30 59/59/30
f 26/26/31 47/47/31 108/108/31 97/97/31
f 36/36/32 6/6/32 91/91/32 102/102/32
f 27/27/33 44/44/33 106/106/33 98/98/33
f 51/51/34 29/29/34 99/99/34 110/110/34
f 22/22/35 40/40/35 104/104/35 95/95/35
f 32/32/36 9/9/36 92/92/36 100/100/36
f 17/17/37 41/41/37 105/105/37 94/94/37
f 4/4/38 54/54/38 111/111/38 90/90/38
f 55/55/39 27/27/39 98/98/39 112/112/39
f 37/37/40 22/22/40 95/95/40 103/103/40
f 47/47/41 45/45/41 107/107/41 108/108/41
f 13/13/42 51/51/42 110/110/42 93/93/42
f 33/33/43 24/24/43 96/96/43 101/101/43
f 24/24/44 36/36/44 102/102/44 96/96/44
f 9/9/45 33/33/45 101/101/45 92/92/45
f 44/44/46 13/13/46 93/93/46 106/106/46
f 54/54/38 2/2/38 89/89/38 111/111/38
f 29/29/47 50/50/47 109/109/47 99/99/47
f 6/6/48 37/37/48 103/103/48 91/91/48
f 40/40/38 4/4/38 90/90/38 104/104/38
f 50/50/49 26/26/49 97/97/49 109/109/49
f 45/45/50 32/32/50 100/100/50 107/107/50
f 2/2/51 17/17/51 94/94/51 89/89/51
f 41/41/52 55/55/52 112/112/52 105/105/52
